# xmcd
# 
# Track frame offsets:
#     150
#     12909
#     25187
#     38802
#     53380
#     66816
#     78539
#     93238
#     106108
#     118813
#     130662
#     143338
#     156111
#     168269
#     178578
#     189989
#     202666
#     213563
#     222397
#     235281
#     247682
#     261476
#     274383
#     284878
# 
# Disc length: 3967
# 
# Revision: 1
# Processed by: cddbd v1.5.2PL0 Copyright (c) Steve Scherf et al.
# Submitted via: fre:ac v1.0.17
# 
DISCID=4e0f7d18
DTITLE=Various Artist - Memphis - That's All Right! From Blues to Rock'n'Roll
DYEAR=2007
DGENRE=Rock and Roll
TTITLE0=Frank Stokes - Memphis Rounder Blues
TTITLE1=Cannon's Jugstompers - Bring It with You When You Come
TTITLE2=Joe Hill Louis - Heartache Baby
TTITLE3=McCoy and Johnson - Don't Want No Woman
TTITLE4=D.A. Hunt - Lonesome Old Jail
TTITLE5=Little Buddy Doyle - Grief Will Kill You
TTITLE6=Sleepy John Estes - Divin' Duck Blues
TTITLE7=Howlin' Wolf - I Asked for Water
TTITLE8=Memphis Jug Band - Kansas City Blues
TTITLE9=Doctor Ross - Doctor Ross Boogie
TTITLE10=Furry Lewis - Black Gypsy Blues
TTITLE11=Robert Wilkins - Falling Down Blues
TTITLE12=Bobby Bland - It's My Life, Baby
TTITLE13=Minnie Thomas - I Know What You Need
TTITLE14=Johnny Ace - So Lonely
TTITLE15=Jackie Brenston - Rocket 88
TTITLE16=Little Junior's Blue Flames - Mystery Train
TTITLE17=Elvis Presley - That's All Right
TTITLE18=Rufus Thomas - Bear Cat
TTITLE19=The Del Rios with The Bear Cats - Alone on a Rainy Nite
TTITLE20=Rosco Gordon - Booted
TTITLE21=Little Milton - Homesick for My Baby
TTITLE22=James Cotton - Straighten Up Baby
TTITLE23=B.B. King - Everyday I Have the Blues
EXTD=
EXTT0=
EXTT1=
EXTT2=
EXTT3=
EXTT4=
EXTT5=
EXTT6=
EXTT7=
EXTT8=
EXTT9=
EXTT10=
EXTT11=
EXTT12=
EXTT13=
EXTT14=
EXTT15=
EXTT16=
EXTT17=
EXTT18=
EXTT19=
EXTT20=
EXTT21=
EXTT22=
EXTT23=
PLAYORDER=
